<svg width="78" height="92" viewBox="0 0 78 92" fill="none" xmlns="http://www.w3.org/2000/svg">
<rect y="7.0769" width="78" height="78.6325" fill="#ADA793"/>
<path d="M67.1513 64.928V80H14.8313V68.096L39.9833 44.576C42.4153 42.272 44.0473 40.32 44.8793 38.72C45.7113 37.056 46.1273 35.392 46.1273 33.728C46.1273 31.552 45.3913 29.856 43.9193 28.64C42.4473 27.424 40.3033 26.816 37.4873 26.816C34.9913 26.816 32.6873 27.392 30.5753 28.544C28.5273 29.632 26.8313 31.232 25.4873 33.344L11.3753 25.472C13.9993 21.12 17.6793 17.696 22.4153 15.2C27.1513 12.704 32.7513 11.456 39.2153 11.456C44.3353 11.456 48.8473 12.288 52.7513 13.952C56.7193 15.616 59.7913 18.016 61.9673 21.152C64.2073 24.224 65.3273 27.808 65.3273 31.904C65.3273 35.552 64.5273 39.008 62.9273 42.272C61.3913 45.472 58.3833 49.12 53.9033 53.216L41.2313 64.928H67.1513Z" fill="white"/>
</svg>
