<svg width="78" height="92" viewBox="0 0 78 92" fill="none" xmlns="http://www.w3.org/2000/svg">
<rect y="7.0769" width="78" height="78.6325" fill="#ADA793"/>
<path d="M49.3043 39.68C54.8723 40.832 59.1283 43.136 62.0723 46.592C65.0803 49.984 66.5843 54.112 66.5843 58.976C66.5843 62.944 65.4963 66.624 63.3203 70.016C61.2083 73.408 57.9443 76.16 53.5283 78.272C49.1763 80.32 43.7683 81.344 37.3043 81.344C32.5683 81.344 27.8643 80.768 23.1923 79.616C18.5843 78.464 14.5843 76.832 11.1923 74.72L18.1043 60.416C20.7283 62.208 23.6723 63.584 26.9363 64.544C30.2643 65.504 33.5283 65.984 36.7283 65.984C39.9923 65.984 42.5843 65.376 44.5043 64.16C46.4243 62.944 47.3843 61.216 47.3843 58.976C47.3843 54.624 43.9603 52.448 37.1123 52.448H29.1443V40.448L41.1443 27.488H14.6483V12.8H63.2243V24.704L49.3043 39.68Z" fill="white"/>
</svg>
