<svg width="80" height="88" viewBox="0 0 80 88" fill="none" xmlns="http://www.w3.org/2000/svg">
<g filter="url(#filter0_d)">
<path d="M40.001 60.914C35.643 55.2586 33.0807 50.3015 32.2312 46.0605C28.3376 30.3463 51.6746 30.3463 47.7811 46.0605C46.8401 50.3908 44.2778 55.3461 40.0113 60.914H40.001ZM63.8542 73.9907C56.5921 77.2603 49.4076 72.0478 43.2556 64.9782C61.1952 41.7516 51.2171 29.2641 40.001 29.2641C30.5184 29.2641 25.2971 37.5694 27.3483 47.2105C28.5448 52.4229 31.7045 58.3515 36.7463 64.9782C31.1296 71.4157 26.2916 74.3871 22.0441 74.7853C13.411 76.1121 6.65818 67.4532 9.73329 58.5193C12.3405 51.5265 29.0231 17.2374 29.7397 15.3838C32.4591 10.0142 34.1529 5.1339 39.9923 5.1339C45.5762 5.1339 47.4859 9.76602 50.4159 15.8249C56.6318 28.4356 65.8433 47.5176 70.2445 58.5193C72.5184 64.4247 70.0079 71.2496 63.8542 73.9907ZM71.9694 49.6837C49.7167 0.701786 48.4839 0 40.001 0C32.1414 0 28.8004 5.65533 25.3834 12.9981C7.05358 50.9104 5.27689 56.2836 5.12322 56.7515C0.768677 69.1318 9.7402 79.9996 20.5989 79.9996C24.3474 79.9996 31.064 78.9174 40.001 68.8568C50.1328 80.246 57.4847 79.9996 59.403 79.9996C70.2617 80.0085 79.2332 69.1318 74.8753 56.7515C74.8787 56.0568 71.9711 49.8051 71.9711 49.6837H71.9694Z" fill="#F9C84D"/>
<path d="M39.6049 61.2192L39.755 61.414H40.001H40.0113H40.2581L40.4082 61.2181C44.6957 55.6229 47.3042 50.6022 48.2682 46.1737C49.2683 42.1301 48.532 39.0169 46.8361 36.9079C45.1483 34.8089 42.5653 33.7748 40.0061 33.7748C37.447 33.7748 34.8639 34.8089 33.1761 36.9079C31.4808 39.0163 30.7444 42.1281 31.7431 46.1698C32.6163 50.5154 35.2287 55.5402 39.6049 61.2192ZM42.8599 64.6726L42.6093 64.9971L42.8785 65.3064C45.9711 68.8604 49.3547 71.9861 52.9107 73.8067C56.4821 75.6353 60.2558 76.1588 64.0586 74.447C70.465 71.5928 73.0765 64.4824 70.7111 58.3396L70.7087 58.3336C66.2992 47.3111 57.0793 28.2125 50.8652 15.6055C50.7082 15.2808 50.5537 14.9591 50.4009 14.6411C49.1425 12.022 48.0038 9.65184 46.5888 7.89382C44.9695 5.88192 42.9612 4.6339 39.9923 4.6339C36.8941 4.6339 34.8747 5.94561 33.3036 7.93542C32.0941 9.46721 31.1303 11.432 30.1217 13.4879C29.8508 14.0402 29.5766 14.5991 29.2936 15.1579L29.2823 15.1802L29.2733 15.2036C29.1031 15.6438 27.9399 18.1064 26.2265 21.7076C25.7212 22.7696 25.1694 23.9278 24.5834 25.158C23.1919 28.0788 21.6073 31.405 19.9936 34.8103C15.4134 44.4758 10.578 54.8225 9.2648 58.3447L9.26465 58.3446L9.26052 58.3566C6.08293 67.5882 13.0537 76.662 22.1055 75.2817C26.5423 74.86 31.4847 71.7692 37.123 65.3069L37.391 64.9998L37.1442 64.6755C32.1241 58.0771 29.0112 52.2158 27.8365 47.1025C26.8356 42.3935 27.6184 38.0527 29.7627 34.9033C31.9005 31.7635 35.4191 29.7641 40.001 29.7641C45.4267 29.7641 50.4957 32.7742 52.0795 38.5435C53.6723 44.3453 51.791 53.1094 42.8599 64.6726ZM71.5045 49.8693C71.506 49.8735 71.5073 49.8773 71.5085 49.8807C71.5175 49.9059 71.5287 49.9345 71.5402 49.963C71.5638 50.0212 71.5969 50.0993 71.637 50.1921C71.7177 50.3786 71.8322 50.6377 71.9683 50.9444C72.016 51.0517 72.0663 51.165 72.1189 51.2834C72.3678 51.8435 72.667 52.5169 72.9662 53.2026C73.3289 54.0339 73.6893 54.878 73.9582 55.5556C74.0929 55.895 74.2022 56.1867 74.2771 56.4114C74.3146 56.524 74.3414 56.6138 74.3583 56.6809C74.3691 56.7238 74.3731 56.7473 74.3746 56.7558C74.3749 56.7578 74.3751 56.7589 74.3752 56.7593L74.3748 56.8357L74.4036 56.9175C78.6451 68.9669 69.9229 79.5082 59.4034 79.4996H59.403C59.3651 79.4996 59.325 79.4997 59.2828 79.4998C58.2824 79.5023 56.0933 79.5079 52.9707 78.2361C49.709 76.9077 45.3988 74.1722 40.3745 68.5245L40.0007 68.1042L39.6271 68.5247C35.1938 73.5154 31.3332 76.2545 28.1423 77.7481C24.9567 79.2391 22.4157 79.4996 20.5989 79.4996C10.0786 79.4996 1.35684 68.9665 5.59489 56.9174L5.59499 56.9174L5.59825 56.9075C5.73935 56.4779 7.49926 51.1373 25.8335 13.2158L25.8336 13.2158L25.8367 13.2091C27.5462 9.53546 29.206 6.35709 31.3864 4.0923C33.5425 1.85282 36.2148 0.5 40.001 0.5C42.1306 0.5 43.6842 0.550576 45.2212 1.32188C46.7604 2.0943 48.3459 3.62543 50.404 6.74874C54.5258 13.0039 60.3758 25.3736 71.5045 49.8693Z" stroke="black"/>
</g>
<defs>
<filter id="filter0_d" x="0" y="0" width="80" height="88" filterUnits="userSpaceOnUse" color-interpolation-filters="sRGB">
<feFlood flood-opacity="0" result="BackgroundImageFix"/>
<feColorMatrix in="SourceAlpha" type="matrix" values="0 0 0 0 0 0 0 0 0 0 0 0 0 0 0 0 0 0 127 0"/>
<feOffset dy="4"/>
<feGaussianBlur stdDeviation="2"/>
<feColorMatrix type="matrix" values="0 0 0 0 0 0 0 0 0 0 0 0 0 0 0 0 0 0 0.25 0"/>
<feBlend mode="normal" in2="BackgroundImageFix" result="effect1_dropShadow"/>
<feBlend mode="normal" in="SourceGraphic" in2="effect1_dropShadow" result="shape"/>
</filter>
</defs>
</svg>
